<?xml version="1.0" encoding="UTF-8" standalone="no"?>
<svg
   xmlns:dc="http://purl.org/dc/elements/1.1/"
   xmlns:cc="http://creativecommons.org/ns#"
   xmlns:rdf="http://www.w3.org/1999/02/22-rdf-syntax-ns#"
   xmlns:svg="http://www.w3.org/2000/svg"
   xmlns="http://www.w3.org/2000/svg"
   xmlns:sodipodi="http://sodipodi.sourceforge.net/DTD/sodipodi-0.dtd"
   xmlns:inkscape="http://www.inkscape.org/namespaces/inkscape"
   width="13.976678mm"
   height="8.4668264mm"
   viewBox="0 0 13.976678 8.4668264"
   version="1.1"
   id="svg8"
   inkscape:version="0.92.5 (2060ec1f9f, 2020-04-08)"
   sodipodi:docname="bundeseagle-icon.svg">
  <defs
     id="defs2" />
  <sodipodi:namedview
     id="base"
     pagecolor="#ffffff"
     bordercolor="#666666"
     borderopacity="1.0"
     inkscape:pageopacity="0.0"
     inkscape:pageshadow="2"
     inkscape:zoom="8"
     inkscape:cx="43.711628"
     inkscape:cy="11.396627"
     inkscape:document-units="mm"
     inkscape:current-layer="layer1"
     inkscape:document-rotation="0"
     showgrid="false"
     inkscape:window-width="1920"
     inkscape:window-height="1016"
     inkscape:window-x="1920"
     inkscape:window-y="27"
     inkscape:window-maximized="1"
     inkscape:snap-global="false" />
  <metadata
     id="metadata5">
    <rdf:RDF>
      <cc:Work
         rdf:about="">
        <dc:format>image/svg+xml</dc:format>
        <dc:type
           rdf:resource="http://purl.org/dc/dcmitype/StillImage" />
        <dc:title />
      </cc:Work>
    </rdf:RDF>
  </metadata>
  <g
     inkscape:label="Layer 1"
     inkscape:groupmode="layer"
     id="layer1"
     transform="translate(-86.75812,-245.14046)">
    <path
       id="path833"
       style="fill:#ffcc00;stroke:#000000;stroke-width:2.1354301;stroke-linecap:butt;stroke-linejoin:miter;stroke-miterlimit:4;stroke-dasharray:none;stroke-opacity:1"
       d="m 387.08398,506.37695 -4.18359,-0.875 c -1.17721,3.87733 -8.87561,29.15647 -12.24219,36.35352 -3.31612,0.0643 -28.37579,1.20127 -36.74218,12.24805 15.67899,-5.0987 28.68434,-5.08906 33.30859,-5.45118 -6.05473,4.11863 -14.52086,2.90299 -21.93164,12.74805 10.36618,-3.83384 29.25106,-7.56828 31.53711,-5.63477 3.51796,3.34145 8.49984,7.16847 2.71289,16.28126 7.02531,-2.47658 9.30088,-13.89735 5.22851,-18.72657 -1.80057,-5.00846 -4.82329,-7.27544 -8.87695,-10.63281 1.84324,-8.88443 8.7004,-29.38719 11.18945,-36.31055 z"
       transform="scale(0.26458333)"
       inkscape:connector-curvature="0" />
    <path
       id="path915"
       style="fill:#ffcc00;fill-opacity:1;stroke:#000000;stroke-width:2.1354301;stroke-linecap:butt;stroke-linejoin:miter;stroke-miterlimit:4;stroke-dasharray:none;stroke-opacity:1"
       d="m 480.87695,504.25 -4.22656,1.37109 6.36719,22.44141 c 0,0 -4.25006,5.25507 -5.56836,6.81836 -4.07237,4.82922 -1.79484,16.24999 5.23047,18.72656 -5.78695,-9.11278 -0.80698,-12.93981 2.71093,-16.28125 2.28605,-1.93353 21.17093,1.80093 31.53711,5.63477 -7.41078,-9.84507 -18.17378,-7.11184 -24.22851,-11.23047 4.62426,0.36212 19.92648,-1.1651 35.60547,3.93359 -5.87921,-8.4836 -27.28349,-9.88692 -30.59961,-9.95117 -2.83077,-0.0549 -9.65327,1.73898 -11.25,0.11133 -1.41397,-1.44135 -4.74317,-17.5022 -5.57813,-21.57422 z"
       transform="scale(0.26458333)"
       inkscape:connector-curvature="0" />
    <path
       id="path927"
       style="fill:#000000;stroke:#000000;stroke-width:2.1354301;stroke-linecap:butt;stroke-linejoin:miter;stroke-miterlimit:4;stroke-dasharray:none;stroke-opacity:1"
       d="m 423.9668,298.9043 c -0.23128,1.9e-4 -0.4628,9.2e-4 -0.69458,0.002 -0.23179,0.001 -0.46385,0.003 -0.69623,0.006 -0.23237,0.002 -0.46505,0.005 -0.69808,0.009 -0.23304,0.004 -0.46641,0.008 -0.70018,0.0125 -7.46181,0.15165 -14.79049,1.63426 -21.19244,4.75357 -6.40195,3.11931 -13.39553,3.12125 -23.41895,0.0625 14.21413,10.54108 12.8404,16.74357 -12.50123,13.64948 25.26035,13.68989 11.3222,32.11415 24.40408,52.29873 13.44907,20.75112 11.16558,32.53841 11.16558,32.53841 l -7.33204,4.4707 c 0,0 -116.67019,11.55191 -164.61132,8.08399 -6.85768,-0.49606 -23.22011,-12.60124 -29.48829,-18.53711 1.26327,22.20865 7.69782,32.67091 24.16211,45.29492 2.77387,-0.0886 5.36656,-0.16174 8.05079,-0.24219 0.6577,19.57164 -0.52358,46.10228 -7.29493,56.73828 9.61361,-0.42841 19.83789,-9.24414 19.83789,-9.24414 4.34103,-12.18857 9.09787,-31.69309 10.78516,-48.12695 4.52173,-0.10637 8.8617,-0.19813 13.09375,-0.2793 0.0797,20.43385 -2.13846,50.70161 -6.58398,63.63672 9.61361,-0.44829 19.83789,-9.67383 19.83789,-9.67383 5.31386,-11.72607 9.89472,-35.99233 11.04297,-54.31054 4.01607,-0.037 7.87983,-0.0623 11.58398,-0.0742 1.02737,21.02858 -1.71824,56.0981 -6.58398,72.50781 10.1418,-0.33695 20.83398,-9.92969 20.83398,-9.92969 8.38175,-12.85266 11.63244,-44.18069 11.625,-62.4414 3.04056,0.046 5.9395,0.10238 8.69727,0.16796 2.38659,24.37128 -1.19046,62.30785 -6.59961,79.11719 C 340.30502,518.91287 350.52734,509 350.52734,509 c 9.94759,-14.62082 14.4226,-50.58587 16.02344,-67.39062 28.64005,2.20559 25.5918,5.83984 25.5918,5.83984 -0.49638,4.52972 -19.91218,48.62064 -19.5625,52.68164 5.53805,0.45608 11.05859,3.00195 11.05859,3.00195 0,0 -0.64695,2.06834 -0.73828,2.36914 l 4.18359,0.875 c 0.1823,-0.50705 0.68473,-2.06978 0.8125,-2.4082 4.66446,1.3867 7.29016,1.19181 10.0879,1.73437 2.4983,-2.57465 0.26304,-14.35674 4.11914,-16.73828 11.034,3.3994 13.21261,0.98077 24.53515,2.43164 l -10.79883,69.54493 11.98828,-7.99805 9.66211,9.90039 7.00196,-10.73633 16.30273,8.89453 -11.58203,-69.60547 h 11.28906 l 4.3418,14.18164 11.10156,-2.4414 0.70508,2.48437 4.22656,-1.37109 c -0.10792,-0.52636 -0.5664,-2.63086 -0.5664,-2.63086 l 7.67578,-3.41211 c 0,0 -11.015,-48.3072 -11.79102,-54.05469 5.39014,-0.47308 10.51542,-0.93661 15.53711,-1.39648 1.69191,17.2479 6.18219,51.94893 15.9082,66.24414 0,0 10.22429,9.91287 19.8379,10.39453 -5.43317,-16.88391 -9.01687,-55.07975 -6.56641,-79.4375 2.96937,-0.29845 5.85899,-0.5946 8.67383,-0.88672 -0.13879,18.0812 3.06733,50.373 11.61523,63.48047 0,0 10.69024,9.59274 20.83203,9.92969 -5.16484,-17.41846 -7.9553,-55.91896 -6.36328,-76.26758 3.89236,-0.45236 7.60257,-0.89552 11.12891,-1.33008 0.49427,18.63147 5.44803,46.60673 11.27929,59.47461 0,0 10.22234,9.22554 19.83594,9.67383 -5.14257,-14.96332 -7.31584,-53.16129 -6.38281,-72.4375 4.49263,-0.65245 8.53653,-1.27745 12.25391,-1.87891 0.0542,17.79982 6.0632,44.02916 11.42578,59.08594 0,0 10.22233,8.81573 19.83594,9.24414 -8.99985,-14.13639 -8.1439,-56.42981 -6.1875,-73.00976 0.17746,-0.0385 0.4132,-0.083 0.58789,-0.1211 19.12558,-4.16816 21.33122,-25.41228 22.5,-34.49609 -3.02054,6.11975 -15.46195,15.71995 -24.60157,15.2832 -65.51116,-3.1306 -122.67181,6.48568 -160.07031,4.10156 -2.53338,-6.78645 -2.19386,-3.89882 -1.82422,-8.86523 0.0677,-0.91002 1.49461,-2.10721 3.38867,-3.39648 l 11.52539,-57.32422 c -0.35053,0.19747 -0.62351,0.29677 -0.98046,0.50195 -3.08852,-32.84947 -26.73944,-41.8377 -55.41797,-41.81445 z"
       transform="scale(0.26458333)"
       sodipodi:nodetypes="sssscsccsccscccccccccccccccccccccccccccccccccccccccccccccccccccccccccscscscccs"
       inkscape:connector-curvature="0" />
    <path
       id="path921"
       style="fill:#ffcc00;fill-opacity:1;stroke:#000000;stroke-width:0.56499898;stroke-linecap:butt;stroke-linejoin:miter;stroke-miterlimit:4;stroke-dasharray:none;stroke-opacity:1"
       d="m 127.09663,90.015694 c -4.58043,2.352486 -5.315,7.329411 -3.04942,15.167036 2.23382,-1.52055 8.15362,-3.76712 8.53384,-4.46485 0.46552,-0.854249 -7.47074,0.63225 -7.03781,0.21601 0.43293,-0.41625 0.74931,-0.61857 0.74931,-0.61857 0,0 8.58706,-9.327441 20.56825,-12.568221 -10.18122,0.443047 -12.19898,-1.993268 -19.76417,2.268595 z"
       sodipodi:nodetypes="ccssccc"
       inkscape:connector-curvature="0" />
    <circle
       style="fill:#ffffff;fill-opacity:1;stroke:#000000;stroke-width:0.96499997;stroke-linecap:round;stroke-linejoin:round;stroke-miterlimit:4;stroke-dasharray:none;paint-order:markers stroke fill"
       id="path835"
       cx="114.6862"
       cy="90.914917"
       r="4.8085365" />
    <circle
       style="fill:#000000;fill-opacity:1;stroke:#000000;stroke-width:0.24032;stroke-linecap:round;stroke-linejoin:round;stroke-miterlimit:4;stroke-dasharray:none;paint-order:markers stroke fill"
       id="circle880"
       cx="116.14749"
       cy="90.044769"
       r="2.0452869" />
    <circle
       style="fill:#ffffff;fill-opacity:1;stroke:#000000;stroke-width:0.079921;stroke-linecap:round;stroke-linejoin:round;stroke-miterlimit:4;stroke-dasharray:none;paint-order:markers stroke fill"
       id="circle882"
       cx="116.34776"
       cy="89.183174"
       r="0.6801824" />
    <path
       id="path930"
       style="fill:#ffcc00;stroke:#000000;stroke-width:0.56499898;stroke-linecap:butt;stroke-linejoin:miter;stroke-miterlimit:4;stroke-dasharray:none;stroke-opacity:1"
       d="m 263.09821,133.9789 -1.1069,-0.23151 c -0.31147,1.02588 -2.34834,7.71432 -3.23908,9.61853 -0.87739,0.017 -7.50776,0.31784 -9.72137,3.24063 4.1484,-1.34903 7.5894,-1.34648 8.8129,-1.44229 -1.60198,1.08972 -3.84198,0.76809 -5.80275,3.37292 2.74272,-1.01437 7.73934,-2.00244 8.34419,-1.49086 0.9308,0.88409 2.24892,1.89666 0.71779,4.30775 1.85878,-0.65526 2.46086,-3.67701 1.38338,-4.95474 -0.47641,-1.32515 -1.27617,-1.92496 -2.3487,-2.81326 0.48769,-2.35068 2.30198,-7.77536 2.96054,-9.60717 z"
       inkscape:connector-curvature="0" />
    <path
       id="path932"
       style="fill:#ffcc00;fill-opacity:1;stroke:#000000;stroke-width:0.56499898;stroke-linecap:butt;stroke-linejoin:miter;stroke-miterlimit:4;stroke-dasharray:none;stroke-opacity:1"
       d="m 287.91427,133.41614 -1.11828,0.36277 1.68466,5.93762 c 0,0 -1.1245,1.39041 -1.4733,1.80403 -1.07748,1.27773 -0.47488,4.29948 1.3839,4.95473 -1.53113,-2.41108 -0.21352,-3.42365 0.71726,-4.30774 0.60485,-0.51158 5.60148,0.47649 8.3442,1.49086 -1.96077,-2.60484 -4.80848,-1.88167 -6.41046,-2.97139 1.2235,0.0958 5.27221,-0.30827 9.42061,1.04076 -1.55554,-2.24462 -7.21876,-2.61591 -8.09615,-2.63291 -0.74897,-0.0145 -2.55409,0.4601 -2.97656,0.0295 -0.37411,-0.38135 -1.25723,-4.85373 -1.47588,-5.70818 -0.44761,0.10416 0,-5e-5 0,-5e-5 z"
       sodipodi:nodetypes="cccscccccsscc"
       inkscape:connector-curvature="0" />
    <path
       style="fill:#ff0000;stroke:#000000;stroke-width:0.565;stroke-linecap:butt;stroke-linejoin:miter;stroke-miterlimit:4;stroke-dasharray:none;stroke-opacity:1"
       d="m 287.00521,101.26766 c 0,0 4.37084,-2.017433 4.65133,-2.445484 0.56761,-0.866233 0.21816,-0.162548 -1.66233,-0.163624 -1.13341,-6.49e-4 -4.0594,1.931948 -4.0594,1.931948 z"
       id="path986"
       sodipodi:nodetypes="csscc"
       inkscape:connector-curvature="0" />
    <path
       id="path934"
       style="fill:#1a1a1a;stroke:#000000;stroke-width:0.56499898;stroke-linecap:butt;stroke-linejoin:miter;stroke-miterlimit:4;stroke-dasharray:none;stroke-opacity:1"
       d="m 272.85679,79.085095 c -0.0612,5e-5 -0.12245,2.43e-4 -0.18377,5.29e-4 -0.0613,2.65e-4 -0.12273,7.94e-4 -0.18421,0.0016 -0.0615,5.29e-4 -0.12305,0.0013 -0.1847,0.0024 -0.0617,0.0011 -0.12341,0.0021 -0.18526,0.0033 -1.97427,0.04012 -3.91331,0.432398 -5.60716,1.257716 -1.69385,0.825317 -3.54424,0.82583 -6.19627,0.01654 3.76082,2.788994 3.39736,4.43007 -3.30761,3.611425 6.68346,3.622117 2.99566,8.496869 6.45691,13.837372 3.5584,5.490403 2.95422,8.609123 2.95422,8.609123 l -1.93993,1.18287 c 0,0 -30.86899,3.05645 -43.55341,2.13889 -1.81443,-0.13125 -6.14366,-3.33408 -7.80211,-4.90461 0.33424,5.87604 2.03671,8.64418 6.39289,11.98428 0.73392,-0.0234 1.4199,-0.0428 2.1301,-0.0641 0.17402,5.17833 -0.13853,12.1979 -1.93011,15.01201 2.5436,-0.11335 5.24877,-2.44585 5.24877,-2.44585 1.14857,-3.22489 2.40715,-8.38546 2.85358,-12.73359 1.19637,-0.0281 2.34465,-0.0524 3.46438,-0.0739 0.0211,5.40646 -0.5658,13.4148 -1.74201,16.83722 2.5436,-0.11861 5.24878,-2.55954 5.24878,-2.55954 1.40596,-3.10252 2.61798,-9.52297 2.92178,-14.36966 1.06259,-0.01 2.08487,-0.0165 3.06493,-0.0196 0.27183,5.56381 -0.45462,14.84262 -1.74201,19.18436 2.68335,-0.0891 5.51232,-2.62723 5.51232,-2.62723 2.21767,-3.4006 3.07775,-11.68948 3.07578,-16.52096 0.80449,0.0122 1.5715,0.0271 2.30116,0.0444 0.63145,6.44824 -0.31498,16.48562 -1.74615,20.93309 2.5436,-0.12748 5.24826,-2.75027 5.24826,-2.75027 2.63196,-3.86842 3.81598,-13.38417 4.23953,-17.83043 7.57768,0.58356 6.77117,1.54512 6.77117,1.54512 -0.13134,1.19849 -5.26844,12.86422 -5.17592,13.93869 1.46528,0.12067 2.92592,0.79426 2.92592,0.79426 0,0 -0.17117,0.54725 -0.19533,0.62684 l 1.1069,0.23151 c 0.0482,-0.13416 0.18117,-0.54763 0.21498,-0.63717 1.23414,0.3669 1.92885,0.31533 2.66909,0.45889 0.66101,-0.68121 0.0468,-2.82044 1.06706,-3.45055 2.91942,0.89942 3.26875,1.01564 6.26451,1.39952 0,0 -2.85411,15.99796 -2.60731,16.66616 0.73557,0.1979 3.17189,-2.11615 3.17189,-2.11615 0,0 1.98899,2.39419 2.55644,2.61947 0.55622,-0.11265 1.8526,-2.84065 1.8526,-2.84065 0,0 3.61512,2.44859 4.31343,2.35334 0.25306,-0.87624 -3.31429,-16.68217 -3.31429,-16.68217 l 3.37264,-0.79058 1.0129,2.80853 2.93729,-0.64595 0.18655,0.65732 1.11828,-0.36277 c -0.0285,-0.13926 -0.14986,-0.69608 -0.14986,-0.69608 l 2.03088,-0.90278 c 0,0 -2.91438,-12.78128 -3.1197,-14.30197 1.42614,-0.12517 2.7822,-0.24782 4.11086,-0.36949 0.44765,4.56351 1.6357,13.74482 4.20904,17.52709 0,0 2.70518,2.62279 5.24878,2.75022 -1.43753,-4.4672 -2.38571,-14.57318 -1.73736,-21.01783 0.78564,-0.079 1.55019,-0.15733 2.29495,-0.23462 -0.0367,4.78399 0.81156,13.32786 3.07319,16.79588 0,0 2.82846,2.53808 5.51181,2.62723 -1.36653,-4.60863 -2.10484,-14.79523 -1.68362,-20.17913 1.02986,-0.11969 2.01152,-0.23694 2.94453,-0.35192 0.13077,4.92958 1.44146,12.33137 2.98431,15.73599 0,0 2.70466,2.44093 5.24826,2.55954 -1.36064,-3.95905 -1.93565,-14.06559 -1.68879,-19.16576 1.18868,-0.17263 2.25863,-0.33799 3.24218,-0.49713 0.0143,4.70954 1.60423,11.64939 3.02308,15.63316 0,0 2.70465,2.33249 5.24825,2.44584 -2.38121,-3.74025 -2.15474,-14.93038 -1.63711,-19.31716 0.047,-0.0102 0.10933,-0.022 0.15555,-0.032 5.06031,-1.10283 5.64389,-6.72367 5.95313,-9.12709 -0.79919,1.61918 -4.09098,4.15923 -6.50917,4.04368 -17.33316,-0.82831 -32.45692,1.716 -42.35194,1.0852 -0.67029,-1.79558 -0.58045,-1.03156 -0.48265,-2.34559 0.0179,-0.24078 0.39545,-0.55753 0.89658,-0.89865 l 3.04943,-15.167038 c -0.0928,0.05225 -0.16497,0.07852 -0.25942,0.132807 -0.81717,-8.691422 -7.07481,-11.069558 -14.66267,-11.063406 z"
       sodipodi:nodetypes="sssscsccsccscccccccccccccccccccccccccccccccccccccccccccccccccccccccccscscscccss"
       inkscape:connector-curvature="0" />
    <path
       id="path936"
       style="fill:#ffcc00;fill-opacity:1;stroke:#000000;stroke-width:0.56499898;stroke-linecap:butt;stroke-linejoin:miter;stroke-miterlimit:4;stroke-dasharray:none;stroke-opacity:1"
       d="m 287.77888,90.015694 c -4.58043,2.352486 -5.315,7.329411 -3.04942,15.167036 2.23382,-1.52055 8.15362,-3.76712 8.53384,-4.46485 0.46552,-0.854249 -7.47074,0.63225 -7.03781,0.21601 0.43293,-0.41625 0.74931,-0.61857 0.74931,-0.61857 0,0 8.58706,-9.327441 20.56825,-12.568221 -10.18122,0.443047 -12.19898,-1.993268 -19.76417,2.268595 z"
       sodipodi:nodetypes="ccssccc"
       inkscape:connector-curvature="0" />
    <circle
       style="fill:#ffffff;fill-opacity:1;stroke:#000000;stroke-width:0.96499997;stroke-linecap:round;stroke-linejoin:round;stroke-miterlimit:4;stroke-dasharray:none;paint-order:markers stroke fill"
       id="circle938"
       cx="275.36844"
       cy="90.914917"
       r="4.8085365" />
    <circle
       style="fill:#000000;fill-opacity:1;stroke:#000000;stroke-width:0.24032;stroke-linecap:round;stroke-linejoin:round;stroke-miterlimit:4;stroke-dasharray:none;paint-order:markers stroke fill"
       id="circle940"
       cx="276.82974"
       cy="90.044769"
       r="2.0452869" />
    <circle
       style="fill:#ffffff;fill-opacity:1;stroke:#000000;stroke-width:0.079921;stroke-linecap:round;stroke-linejoin:round;stroke-miterlimit:4;stroke-dasharray:none;paint-order:markers stroke fill"
       id="circle942"
       cx="277.03"
       cy="89.183174"
       r="0.6801824" />
    <path
       style="fill:#d4aa00;stroke:#000000;stroke-width:0.26458299px;stroke-linecap:butt;stroke-linejoin:miter;stroke-opacity:1"
       d="m 306.11889,87.930419 c -5.67341,-0.183854 -19.19182,6.42317 -20.02315,12.614321 0.11891,0.0968 0.73923,-0.4811 0.73923,-0.4811 2.44486,-2.851237 7.65003,-6.079972 9.70883,-7.601652 2.087,-1.542525 5.04139,-3.058888 9.57509,-4.531569 z"
       id="path944"
       sodipodi:nodetypes="cccsc"
       inkscape:connector-curvature="0" />
    <path
       style="fill:#d4aa00;fill-opacity:1;stroke:#000000;stroke-width:0.26458299px;stroke-linecap:butt;stroke-linejoin:miter;stroke-opacity:1"
       d="m 284.87338,104.76507 c 0,0 7.71168,-3.75753 7.85733,-3.99114 0.14565,-0.23361 -7.04875,2.41872 -8.11443,3.14749 z"
       id="path946"
       sodipodi:nodetypes="cscc"
       inkscape:connector-curvature="0" />
    <path
       style="fill:#000000;stroke:#000000;stroke-width:0.26458299px;stroke-linecap:butt;stroke-linejoin:miter;stroke-opacity:1"
       d="m 266.50816,105.5452 c 4.92023,1.73735 13.6151,0.35016 18.2213,-0.36247 -1.54079,1.16677 -0.7807,1.38398 -0.7807,1.38398 -2.04531,0.58371 -8.88207,1.53278 -18.27248,0.50922 0.95357,-0.81034 0.74265,-0.65083 0.74265,-0.65083 z"
       id="path948"
       sodipodi:nodetypes="cccccc"
       inkscape:connector-curvature="0" />
    <path
       id="rect950"
       style="fill:#4d4d4d;fill-opacity:1;stroke:#000000;stroke-width:2.40756011;stroke-linecap:butt;stroke-linejoin:miter;stroke-miterlimit:4;stroke-dasharray:none;paint-order:markers stroke fill"
       d="m 1028.7943,299.84449 c -7.4618,0.15164 -14.5248,1.69247 -21.0363,4.55418 -6.5197,2.86527 -10.06034,3.71459 -19.26487,1.61306 7.64943,8.29976 10.11407,13.84317 -12.57034,12.90411 7.08486,3.83966 7.42861,5.86453 9.80735,10.38343 39.95696,-40.22962 86.41876,-17.78756 86.41876,-17.78756 -12.171,-10.15638 -28.3592,-11.91205 -43.3546,-11.66722 z"
       transform="scale(0.26458333)"
       sodipodi:nodetypes="csccccc"
       inkscape:connector-curvature="0" />
    <path
       style="fill:#4d4d4d;stroke:#000000;stroke-width:0.26458299px;stroke-linecap:butt;stroke-linejoin:miter;stroke-opacity:1"
       d="m 264.47901,107.60797 c -3.00801,1.30336 -41.12716,3.04979 -43.64196,2.30157 -2.5809,-0.76789 -7.42555,-4.41489 -7.42555,-4.41489 0,0 3.30155,3.77586 5.34983,5.15275 5.49971,3.69699 44.65564,-1.71536 45.52407,-2.29523 0.86842,-0.57988 0.19361,-0.7442 0.19361,-0.7442 z"
       id="path959"
       sodipodi:nodetypes="cscssc"
       inkscape:connector-curvature="0" />
    <path
       style="fill:#4d4d4d;stroke:#000000;stroke-width:0.26458299px;stroke-linecap:butt;stroke-linejoin:miter;stroke-opacity:1"
       d="m 284.31552,108.42701 c 8.96256,0.5007 30.81076,-1.40194 42.36663,-0.74653 2.63973,-0.24285 5.97449,-3.05452 5.97449,-3.05452 0,0 -2.92669,4.21934 -5.61979,4.18487 -7.18265,-0.0919 -41.47409,1.5674 -42.39863,0.12102 z"
       id="path961"
       sodipodi:nodetypes="cccssc"
       inkscape:connector-curvature="0" />
    <path
       id="circle963"
       style="fill:#e6e6e6;fill-opacity:1;stroke:#000000;stroke-width:0.96499997;stroke-linecap:round;stroke-linejoin:round;stroke-miterlimit:4;stroke-dasharray:none;paint-order:markers stroke fill"
       d="m 280.17698,90.914917 c 0,2.655683 -2.15286,4.808539 -4.80854,4.808537 -2.65568,2e-6 -4.80854,-2.152854 -4.80854,-4.808537 3.03744,4.00321 7.08923,4.686573 9.61708,0 z"
       sodipodi:nodetypes="cscc"
       inkscape:connector-curvature="0" />
    <path
       id="path969"
       style="fill:#d4aa00;fill-opacity:1;stroke:#000000;stroke-width:2.1354301;stroke-linecap:butt;stroke-linejoin:miter;stroke-miterlimit:4;stroke-dasharray:none;stroke-opacity:1"
       d="m 969.83683,545.50686 c -7.08533,0.72859 -13.83613,1.5222 -24.83626,6.36581 13.53207,-3.82465 27.25445,-4.16784 33.20563,-4.48515 -2.13935,-1.34681 -4.01419,-2.21517 -8.36937,-1.88066 z"
       transform="scale(0.26458333)"
       sodipodi:nodetypes="cccc"
       inkscape:connector-curvature="0" />
    <path
       id="path974"
       style="fill:#d4aa00;fill-opacity:1;stroke:#000000;stroke-width:0.502235;stroke-linecap:butt;stroke-linejoin:miter;stroke-miterlimit:4;stroke-dasharray:none;stroke-opacity:1"
       d="m 258.59228,146.17708 c -1.6386,0.26967 -3.16468,0.58924 -5.6907,1.77568 3.09024,-0.95922 6.58723,-1.52849 7.5893,-1.19234 -0.36288,-0.40258 -0.88981,-0.72226 -1.8986,-0.58334 z"
       sodipodi:nodetypes="cccc"
       inkscape:connector-curvature="0" />
    <path
       style="fill:#d4aa00;fill-opacity:1;stroke:#000000;stroke-width:0.26458299px;stroke-linecap:butt;stroke-linejoin:miter;stroke-opacity:1"
       d="m 261.86819,150.51324 c 0.13788,-0.15125 0.57771,-0.64787 0.81642,-1.35258 0.23872,-0.70471 0.27631,-1.61751 -0.39029,-2.60113 0.0202,0.6038 -0.71775,1.29508 -0.39973,1.91687 0.28928,0.5656 0.1377,1.46624 -0.0264,2.03684 z"
       id="path976"
       sodipodi:nodetypes="cscsc"
       inkscape:connector-curvature="0" />
    <path
       id="path978"
       style="fill:#d4aa00;fill-opacity:1;stroke:#000000;stroke-width:0.56499898;stroke-linecap:butt;stroke-linejoin:miter;stroke-miterlimit:4;stroke-dasharray:none;stroke-opacity:1"
       d="m 292.86186,139.79255 c 1.8821,0.0959 3.6767,0.21361 6.64931,1.3435 -3.62774,-0.82614 -7.25831,-0.72976 -8.83512,-0.73248 0.54692,-0.38503 1.03047,-0.64003 2.18581,-0.61102 z"
       sodipodi:nodetypes="cccc"
       inkscape:connector-curvature="0" />
    <path
       id="path980"
       style="fill:#d4aa00;fill-opacity:1;stroke:#000000;stroke-width:0.502235;stroke-linecap:butt;stroke-linejoin:miter;stroke-miterlimit:4;stroke-dasharray:none;stroke-opacity:1"
       d="m 290.88722,141.32505 c 1.6386,0.26967 3.16468,0.58924 5.6907,1.77568 -3.09024,-0.95922 -6.58723,-1.52849 -7.5893,-1.19234 0.36288,-0.40258 0.88981,-0.72226 1.8986,-0.58334 z"
       sodipodi:nodetypes="cccc"
       inkscape:connector-curvature="0" />
    <path
       style="fill:#d4aa00;fill-opacity:1;stroke:#000000;stroke-width:0.26458299px;stroke-linecap:butt;stroke-linejoin:miter;stroke-opacity:1"
       d="m 287.61131,145.66121 c -0.13788,-0.15125 -0.57771,-0.64787 -0.81642,-1.35258 -0.23872,-0.70471 -0.27631,-1.61751 0.39029,-2.60113 -0.0202,0.6038 0.71775,1.29508 0.39973,1.91687 -0.28928,0.5656 -0.1377,1.46624 0.0264,2.03684 z"
       id="path982"
       sodipodi:nodetypes="cscsc"
       inkscape:connector-curvature="0" />
    <path
       style="fill:#000000;stroke:#000000;stroke-width:0.26458299px;stroke-linecap:butt;stroke-linejoin:miter;stroke-opacity:1"
       d="m 299.85472,137.06979 c 0,0 -4.30527,-1.26164 -4.92458,-2.69211 -0.61929,-1.43047 -1.15515,-2.64436 -1.15515,-2.64436 2.21422,1.30067 3.56391,1.31651 4.97573,-0.15151 z"
       id="path988"
       sodipodi:nodetypes="csccc"
       inkscape:connector-curvature="0" />
    <path
       style="fill:#000000;stroke:#000000;stroke-width:0.26458299px;stroke-linecap:butt;stroke-linejoin:miter;stroke-opacity:1"
       d="m 308.82282,135.19256 c 0,0 -4.30527,-1.26164 -4.92458,-2.69211 -0.61929,-1.43047 -1.15515,-2.64436 -1.15515,-2.64436 2.14721,1.77678 3.75989,1.70445 4.97573,-0.15151 z"
       id="path990"
       sodipodi:nodetypes="csccc"
       inkscape:connector-curvature="0" />
    <path
       style="fill:#000000;stroke:#000000;stroke-width:0.26458299px;stroke-linecap:butt;stroke-linejoin:miter;stroke-opacity:1"
       d="m 318.63819,133.02599 c 0,0 -4.30527,-1.26164 -4.92458,-2.69211 -0.61929,-1.43047 -1.15515,-2.64436 -1.15515,-2.64436 2.35212,1.57704 3.87967,1.76321 4.97573,-0.15151 z"
       id="path992"
       sodipodi:nodetypes="csccc"
       inkscape:connector-curvature="0" />
    <path
       style="fill:#000000;stroke:#000000;stroke-width:0.26458299px;stroke-linecap:butt;stroke-linejoin:miter;stroke-opacity:1"
       d="m 328.3234,131.38118 c 0,0 -4.30527,-1.26164 -4.92458,-2.69211 -0.61929,-1.43047 -0.94034,-2.75996 -0.94034,-2.75996 2.09594,0.77685 3.36463,0.91501 4.76092,-0.0359 z"
       id="path994"
       sodipodi:nodetypes="csccc"
       inkscape:connector-curvature="0" />
    <path
       style="fill:#000000;stroke:#000000;stroke-width:0.26458299px;stroke-linecap:butt;stroke-linejoin:miter;stroke-opacity:1"
       d="m 248.52375,137.1521 c 0,0 4.30527,-1.26164 4.92458,-2.69211 0.61929,-1.43047 1.15515,-2.64436 1.15515,-2.64436 -2.21422,1.30067 -3.56391,1.31651 -4.97573,-0.15151 z"
       id="path998"
       sodipodi:nodetypes="csccc"
       inkscape:connector-curvature="0" />
    <path
       style="fill:#000000;stroke:#000000;stroke-width:0.26458299px;stroke-linecap:butt;stroke-linejoin:miter;stroke-opacity:1"
       d="m 239.55565,135.27487 c 0,0 4.30527,-1.26164 4.92458,-2.69211 0.61929,-1.43047 1.15515,-2.64436 1.15515,-2.64436 -2.14721,1.77678 -3.75989,1.70445 -4.97573,-0.15151 z"
       id="path1000"
       sodipodi:nodetypes="csccc"
       inkscape:connector-curvature="0" />
    <path
       style="fill:#000000;stroke:#000000;stroke-width:0.26458299px;stroke-linecap:butt;stroke-linejoin:miter;stroke-opacity:1"
       d="m 229.74028,133.1083 c 0,0 4.30527,-1.26164 4.92458,-2.69211 0.61929,-1.43047 1.15515,-2.64436 1.15515,-2.64436 -2.35212,1.57704 -3.87967,1.76321 -4.97573,-0.15151 z"
       id="path1002"
       sodipodi:nodetypes="csccc"
       inkscape:connector-curvature="0" />
    <path
       style="fill:#000000;stroke:#000000;stroke-width:0.26458299px;stroke-linecap:butt;stroke-linejoin:miter;stroke-opacity:1"
       d="m 220.05507,131.46349 c 0,0 4.30527,-1.26164 4.92458,-2.69211 0.61929,-1.43047 0.94034,-2.75996 0.94034,-2.75996 -2.09594,0.77685 -3.36463,0.91501 -4.76092,-0.0359 z"
       id="path1004"
       sodipodi:nodetypes="csccc"
       inkscape:connector-curvature="0" />
    <path
       style="fill:#000000;stroke:#000000;stroke-width:0.26458299px;stroke-linecap:butt;stroke-linejoin:miter;stroke-opacity:1"
       d="m 283.70127,133.8057 -0.81859,-2.41208 c 0,0 4.90757,-0.0534 6.45189,-1.73276 0.2712,1.09403 0.52012,2.19497 0.52012,2.19497 l -2.04954,0.69963 -0.022,0.77455 -0.89893,0.28541 -0.22949,-0.58621 z"
       id="path1006"
       sodipodi:nodetypes="ccccccccc"
       inkscape:connector-curvature="0" />
    <path
       style="fill:#000000;stroke:#000000;stroke-width:0.26458299px;stroke-linecap:butt;stroke-linejoin:miter;stroke-opacity:1"
       d="m 265.54959,133.83918 0.945,-2.59667 c 0,0 -4.81162,0.0382 -6.35594,-1.64116 -0.2712,1.09403 -0.72818,2.19434 -0.72818,2.19434 l 2.78728,1.04023 0.0669,0.70224 0.91334,0.22235 0.39378,-0.48597 z"
       id="path1008"
       sodipodi:nodetypes="ccccccccc"
       inkscape:connector-curvature="0" />
    <path
       id="rect1020"
       style="fill:#000000;fill-opacity:1;stroke:#000000;stroke-width:2.1354301;stroke-linecap:butt;stroke-linejoin:miter;stroke-miterlimit:4;stroke-dasharray:none;paint-order:markers stroke fill"
       d="m 1027.666,528.47461 c -2.6087,15.94351 -4.9597,31.28551 -4.5234,32.4668 2.7801,0.74796 11.9883,-7.99805 11.9883,-7.99805 0,0 7.5174,9.04894 9.6621,9.90039 2.1022,-0.42576 7.0019,-10.73633 7.0019,-10.73633 0,0 13.6635,9.25453 16.3028,8.89453 0.4447,-1.54 -2.0447,-16.7485 -4.8184,-32.52734 -11.5982,10.56425 -25.2054,11.22774 -35.6133,0 z"
       transform="scale(0.26458333)"
       sodipodi:nodetypes="cccccccc"
       inkscape:connector-curvature="0" />
    <path
       id="path1026"
       style="fill:#ffcc00;stroke:#000000;stroke-width:0.56499898;stroke-linecap:butt;stroke-linejoin:miter;stroke-miterlimit:4;stroke-dasharray:none;stroke-opacity:1"
       d="m 424.98949,129.36737 -0.9588,-0.59959 c -0.64666,0.85515 -4.38025,4.7202 -6.16402,5.83268 -1.00983,-2.05084 -6.47095,-3.82024 -9.91888,-2.57342 4.21426,1.12655 7.09938,3.0018 8.17788,3.58744 -1.93702,0.0421 -3.64099,-1.44707 -6.70374,-0.32934 2.85303,0.64167 7.58224,2.53317 7.81113,3.29156 0.29956,1.24831 0.85408,2.81523 -1.7428,4.00431 1.91595,0.46215 4.06589,-1.7449 3.85758,-3.40327 0.32167,-1.37095 -0.0227,-2.30944 -0.43882,-3.63843 1.6887,-1.70642 4.82971,-4.68035 6.08047,-6.17194 z"
       sodipodi:nodetypes="ccccccccccc"
       inkscape:connector-curvature="0" />
    <path
       id="path1028"
       style="fill:#ffcc00;fill-opacity:1;stroke:#000000;stroke-width:0.56499898;stroke-linecap:butt;stroke-linejoin:miter;stroke-miterlimit:4;stroke-dasharray:none;stroke-opacity:1"
       d="m 448.47252,137.41107 -1.17476,-0.0458 -0.46997,6.15407 c 0,0 -1.53555,0.91641 -2.00575,1.18409 -1.45251,0.82691 -1.93076,3.87082 -0.41272,5.12779 -0.60406,-2.79155 0.9822,-3.28668 2.16107,-3.79485 0.74433,-0.27117 5.09213,2.38199 7.31566,4.2813 -0.94034,-3.12179 -3.86257,-3.42677 -4.98954,-5.00276 1.1151,0.51251 5.05418,1.5318 8.48128,4.23071 -0.68448,-2.64377 -5.26519,-5.73761 -6.0827,-6.05663 -0.69787,-0.27231 -2.20239,-0.4384 -3.09505,-0.24428 -0.0189,-0.96943 0.18251,-4.95618 0.27246,-5.83356 -0.45604,-0.0569 2e-5,-5e-5 2e-5,-5e-5 z"
       sodipodi:nodetypes="cccscccccscccc"
       inkscape:connector-curvature="0" />
    <path
       style="fill:#ff0000;stroke:#000000;stroke-width:0.565;stroke-linecap:butt;stroke-linejoin:miter;stroke-miterlimit:4;stroke-dasharray:none;stroke-opacity:1"
       d="m 455.42359,107.22844 c 0,0 4.79866,-0.38351 5.20974,-0.68833 0.83189,-0.61685 0.26088,-0.0772 -1.50349,-0.72774 -1.06343,-0.39211 -4.47687,0.41086 -4.47687,0.41086 z"
       id="path1030"
       sodipodi:nodetypes="csscc"
       inkscape:connector-curvature="0" />
    <path
       id="path1032"
       style="fill:#1a1a1a;stroke:#000000;stroke-width:0.56499898;stroke-linecap:butt;stroke-linejoin:miter;stroke-miterlimit:4;stroke-dasharray:none;stroke-opacity:1"
       d="m 453.10853,81.223013 c -0.0575,-0.02109 -0.115,-0.04207 -0.17265,-0.06298 -0.0576,-0.02093 -0.11545,-0.04165 -0.17342,-0.06213 -0.0579,-0.02075 -0.11593,-0.04128 -0.17416,-0.06155 -0.0583,-0.02028 -0.11654,-0.04066 -0.175,-0.06089 -1.86661,-0.64429 -3.8218,-0.945928 -5.69647,-0.756488 -1.87467,0.18944 -3.61135,-0.44923 -5.82061,-2.124757 2.56599,3.916373 1.65805,5.330897 -4.35146,2.246649 5.02096,5.707738 -0.12366,9.008633 1.27986,15.215994 1.44292,6.381599 -0.20132,9.099669 -0.20132,9.099669 l -2.22911,0.43998 c 0,0 -25.55578,-10.569649 -35.41661,-18.60086 -1.41054,-1.148815 -3.11765,-6.256277 -3.57442,-8.494217 -3.09865,5.003793 -3.29316,8.247736 -1.64277,13.483075 0.61445,0.402046 1.18734,0.779856 1.78116,1.170011 -2.82942,4.340479 -7.11403,9.909521 -10.19624,11.185811 2.14804,1.36699 5.702,1.00942 5.702,1.00942 2.79141,-1.98172 6.7838,-5.485458 9.64486,-8.789983 0.99585,0.663603 1.95014,1.302724 2.87945,1.927747 -3.08559,4.439526 -8.16234,10.660836 -11.08974,12.788446 2.15107,1.3627 5.76727,0.91633 5.76727,0.91633 2.93194,-1.73379 7.60929,-6.29599 10.63967,-10.09065 0.87592,0.60165 -0.69917,3.23192 0.22164,3.56754 -1.66672,5.31525 -6.5912,10.06934 -10.13726,12.88598 2.24857,1.46706 6.02192,1.01215 6.02192,1.01215 3.76774,-1.51204 8.86055,-6.96467 10.52756,-11.49945 0.75076,0.28933 2.74427,0.65956 3.33187,1.0925 -3.18365,5.64294 -9.71932,13.31952 -13.44381,16.14024 2.15616,1.35542 5.8763,0.75983 5.8763,0.75983 4.3755,-1.65737 10.80636,-8.77042 13.705,-12.16844 5.87055,4.82685 5.63895,1.80604 5.63895,1.80604 -0.53723,1.07935 -9.38765,10.25263 -9.67196,11.29293 1.33341,0.61937 2.47148,1.75603 2.47148,1.75603 0,0 -0.34966,0.45444 -0.39982,0.52079 l 0.9588,0.59959 c 0.0916,-0.10925 0.35918,-0.45134 0.42184,-0.52369 1.03144,0.77061 1.70121,0.96217 2.3463,1.35259 0.85562,-0.41096 1.01814,-2.63068 2.19325,-2.8696 2.42906,1.85247 2.74284,0.95806 5.00495,2.95927 0,0 -11.35194,11.62816 -11.52336,12.31955 0.49718,0.57709 3.81286,0.0324 3.81286,0.0324 0,0 0.29954,3.09814 0.64228,3.60339 0.52338,0.21943 3.12884,-1.30834 3.12884,-1.30834 0,0 1.61397,4.05706 2.24509,4.37075 0.70178,-0.58254 6.63448,-15.66088 6.63448,-15.66088 l 4.49365,-0.35276 -0.0196,2.98553 2.97962,0.40839 -0.052,0.6813 1.17476,0.0458 c 0.0214,-0.14053 0.0998,-0.705 0.0998,-0.705 l 2.21771,-0.14572 c 0,0 1.67983,-13.00127 2.01242,-14.49928 1.38159,0.37514 2.69655,0.72844 3.98546,1.0732 -1.1562,4.43725 -3.21263,13.46383 -2.10413,17.90217 0,0 1.63273,3.39576 3.97576,4.39394 0.19398,-4.68878 2.79491,-14.50026 5.62943,-20.32429 0.76457,0.19723 1.50912,0.38781 2.23473,0.57252 -1.68689,4.47686 -3.84202,12.78786 -2.91749,16.82363 0,0 1.77768,3.35885 4.26508,4.36938 0.30946,-4.79699 3.13519,-14.61163 5.39016,-19.51866 1.00781,0.24341 1.96955,0.47245 2.88485,0.68682 -1.58002,4.67134 -2.90669,12.07028 -2.6348,15.79827 0,0 1.69505,3.22492 4.04113,4.21483 0.0906,-4.18536 3.04194,-13.86846 5.03527,-18.56945 1.17515,0.24858 2.23636,0.46297 3.21434,0.65336 -1.61332,4.42461 -2.51837,11.4865 -2.5629,15.71516 0,0 1.73251,3.12315 4.0804,4.10812 -0.94272,-4.33254 3.13504,-14.7557 5.13607,-18.69368 0.0476,0.007 0.1102,0.0171 0.15703,0.0237 5.12978,0.71295 7.61896,-4.36035 8.73934,-6.50902 -1.30929,1.24346 -5.27584,2.49014 -7.50528,1.54643 -15.9802,-6.76445 -31.05194,-9.6007 -40.12004,-13.61055 -0.009,-1.91659 -0.1884,-1.16856 0.35726,-2.36793 0.1,-0.21978 0.56369,-0.38662 1.1518,-0.53365 l 8.10065,-13.180199 c -0.10514,0.01698 -0.18194,0.0167 -0.28933,0.03503 2.23527,-8.43873 -2.81577,-12.83197 -9.93873,-15.44715 z"
       sodipodi:nodetypes="sssscsccsccscccccccccccccccccccccccccccccccccccccccccccccccccccccccccscscscccss"
       inkscape:connector-curvature="0" />
    <path
       id="path1034"
       style="fill:#ffcc00;fill-opacity:1;stroke:#000000;stroke-width:0.56499898;stroke-linecap:butt;stroke-linejoin:miter;stroke-miterlimit:4;stroke-dasharray:none;stroke-opacity:1"
       d="m 463.33658,96.635137 c -5.11108,0.625547 -7.51954,5.042413 -8.10063,13.180203 2.62155,-0.65537 8.95298,-0.71888 9.5508,-1.24234 0.73194,-0.64087 -7.2293,-1.98716 -6.67924,-2.22824 0.55006,-0.24109 0.91685,-0.32168 0.91685,-0.32168 0,0 11.28036,-5.78724 23.64352,-4.69008 -9.7076,-3.100963 -10.75963,-6.084287 -19.3313,-4.697863 z"
       sodipodi:nodetypes="ccssccc"
       inkscape:connector-curvature="0" />
    <circle
       style="fill:#ffffff;fill-opacity:1;stroke:#000000;stroke-width:0.96499997;stroke-linecap:round;stroke-linejoin:round;stroke-miterlimit:4;stroke-dasharray:none;paint-order:markers stroke fill"
       id="circle1036"
       cx="455.78708"
       cy="-68.456459"
       r="4.8085365"
       transform="rotate(20.207073)" />
    <circle
       style="fill:#000000;fill-opacity:1;stroke:#000000;stroke-width:0.24032;stroke-linecap:round;stroke-linejoin:round;stroke-miterlimit:4;stroke-dasharray:none;paint-order:markers stroke fill"
       id="circle1038"
       cx="457.24838"
       cy="-69.326607"
       r="2.0452869"
       transform="rotate(20.207073)" />
    <circle
       style="fill:#ffffff;fill-opacity:1;stroke:#000000;stroke-width:0.079921;stroke-linecap:round;stroke-linejoin:round;stroke-miterlimit:4;stroke-dasharray:none;paint-order:markers stroke fill"
       id="circle1040"
       cx="457.46179"
       cy="-70.439735"
       r="0.6801824"
       transform="rotate(20.207073)" />
    <path
       style="fill:#d4aa00;stroke:#000000;stroke-width:0.26458299px;stroke-linecap:butt;stroke-linejoin:miter;stroke-opacity:1"
       d="m 481.26806,101.01311 c -5.26071,-2.132216 -20.22923,-0.6013 -23.1479,4.92163 0.0781,0.13192 0.85991,-0.19614 0.85991,-0.19614 3.27924,-1.83126 9.27928,-3.06333 11.73697,-3.78021 2.49136,-0.7267 5.78768,-1.12925 10.55102,-0.94528 z"
       id="path1042"
       sodipodi:nodetypes="cccsc"
       inkscape:connector-curvature="0" />
    <path
       style="fill:#d4aa00;fill-opacity:1;stroke:#000000;stroke-width:0.26458299px;stroke-linecap:butt;stroke-linejoin:miter;stroke-opacity:1"
       d="m 455.51527,109.47309 c 0,0 8.53494,-0.86253 8.75231,-1.03145 0.21738,-0.16892 -7.45036,-0.16489 -8.70217,0.15092 z"
       id="path1044"
       sodipodi:nodetypes="cscc"
       inkscape:connector-curvature="0" />
    <path
       id="path1048"
       style="fill:#4d4d4d;fill-opacity:1;stroke:#000000;stroke-width:0.63700002;stroke-linecap:butt;stroke-linejoin:miter;stroke-miterlimit:4;stroke-dasharray:none;paint-order:markers stroke fill"
       d="m 452.40794,81.230225 c -1.86661,-0.64429 -3.76116,-0.907196 -5.63949,-0.791731 -1.88069,0.115602 -2.83744,0.0029 -4.93085,-1.360111 1.14082,2.759904 1.24617,4.361571 -4.30051,2.055256 1.40824,1.60087 1.30855,2.135061 1.4862,3.474489 9.38353,-3.972161 19.95395,-1.167816 23.08325,3.481258 -2.48162,-4.621472 -5.95289,-5.549511 -9.6986,-6.859161 z"
       sodipodi:nodetypes="csccccc"
       inkscape:connector-curvature="0" />
    <path
       style="fill:#4d4d4d;stroke:#000000;stroke-width:0.26458299px;stroke-linecap:butt;stroke-linejoin:miter;stroke-opacity:1"
       d="m 435.39419,105.09651 c -3.27306,0.18413 -33.95251,-16.462444 -35.5825,-18.518459 -1.67282,-2.110057 -3.5471,-7.877063 -3.5471,-7.877063 0,0 -1.81975,6.543151 -0.9326,8.84625 2.38202,6.183893 38.60818,18.425002 39.62345,18.180792 1.01527,-0.24422 0.43875,-0.63152 0.43875,-0.63152 z"
       id="path1050"
       sodipodi:nodetypes="cscssc"
       inkscape:connector-curvature="0" />
    <path
       style="fill:#4d4d4d;stroke:#000000;stroke-width:0.26458299px;stroke-linecap:butt;stroke-linejoin:miter;stroke-opacity:1"
       d="m 452.68359,112.68679 c 8.23797,3.56568 30.44189,9.35698 41.06012,13.96361 2.56114,0.6839 6.66183,-0.80284 6.66183,-0.80284 0,0 -4.20397,2.94872 -6.7194,1.98613 -6.70882,-2.56723 -39.95811,-9.89129 -39.95849,-11.60792 l -1.3e-4,-0.5983 z"
       id="path1052"
       sodipodi:nodetypes="cccsscc"
       inkscape:connector-curvature="0" />
    <path
       id="path1054"
       style="fill:#e6e6e6;fill-opacity:1;stroke:#000000;stroke-width:0.96499997;stroke-linecap:round;stroke-linejoin:round;stroke-miterlimit:4;stroke-dasharray:none;paint-order:markers stroke fill"
       d="m 455.89197,94.85321 c -0.91731,2.492227 -3.68129,3.768947 -6.17351,2.851636 -2.49222,-0.917307 -3.76895,-3.681284 -2.85164,-6.17351 1.46772,4.805988 5.03408,6.846836 9.02515,3.321874 z"
       sodipodi:nodetypes="cscc"
       inkscape:connector-curvature="0" />
    <path
       id="path1056"
       style="fill:#d4aa00;fill-opacity:1;stroke:#000000;stroke-width:0.56499898;stroke-linecap:butt;stroke-linejoin:miter;stroke-miterlimit:4;stroke-dasharray:none;stroke-opacity:1"
       d="m 415.5376,134.24076 c -1.67752,-0.85877 -3.29014,-1.65492 -6.4292,-2.1642 3.55427,1.1001 6.64933,3.00032 8.01589,3.78701 -0.28086,-0.60704 -0.57191,-1.06979 -1.58669,-1.62281 z"
       sodipodi:nodetypes="cccc"
       inkscape:connector-curvature="0" />
    <path
       id="path1058"
       style="fill:#d4aa00;fill-opacity:1;stroke:#000000;stroke-width:0.502235;stroke-linecap:butt;stroke-linejoin:miter;stroke-miterlimit:4;stroke-dasharray:none;stroke-opacity:1"
       d="m 416.20224,136.87155 c -1.52135,-0.66576 -2.97547,-1.22841 -5.74028,-1.6082 3.11443,0.87753 6.35778,2.30359 7.01539,3.13105 -0.0852,-0.53525 -0.35326,-1.09024 -1.27511,-1.52285 z"
       sodipodi:nodetypes="cccc"
       inkscape:connector-curvature="0" />
    <path
       style="fill:#d4aa00;fill-opacity:1;stroke:#000000;stroke-width:0.26458299px;stroke-linecap:butt;stroke-linejoin:miter;stroke-opacity:1"
       d="m 416.58985,142.29222 c 0.198,-0.0518 0.8373,-0.22899 1.42114,-0.6902 0.58387,-0.46121 1.11229,-1.20645 1.08854,-2.39443 -0.31173,0.51749 -1.30707,0.69567 -1.37877,1.39038 -0.0652,0.63193 -0.68263,1.30493 -1.13091,1.69425 z"
       id="path1060"
       sodipodi:nodetypes="cscsc"
       inkscape:connector-curvature="0" />
    <path
       id="path1062"
       style="fill:#d4aa00;fill-opacity:1;stroke:#000000;stroke-width:0.56499898;stroke-linecap:butt;stroke-linejoin:miter;stroke-miterlimit:4;stroke-dasharray:none;stroke-opacity:1"
       d="m 450.91308,145.10398 c 1.73314,0.7401 3.37662,1.47045 5.77599,3.55757 -3.1191,-2.02836 -6.5595,-3.19196 -8.03832,-3.73917 0.64626,-0.17242 1.18812,-0.2447 2.26233,0.1816 z"
       sodipodi:nodetypes="cccc"
       inkscape:connector-curvature="0" />
    <path
       id="path1064"
       style="fill:#d4aa00;fill-opacity:1;stroke:#000000;stroke-width:0.502235;stroke-linecap:butt;stroke-linejoin:miter;stroke-miterlimit:4;stroke-dasharray:none;stroke-opacity:1"
       d="m 448.53063,145.86009 c 1.4446,0.81906 2.76637,1.64609 4.7271,3.63203 -2.56871,-1.96759 -5.65383,-3.70973 -6.71033,-3.7404 0.4796,-0.25246 1.08452,-0.37045 1.98323,0.10837 z"
       sodipodi:nodetypes="cccc"
       inkscape:connector-curvature="0" />
    <path
       style="fill:#d4aa00;fill-opacity:1;stroke:#000000;stroke-width:0.26458299px;stroke-linecap:butt;stroke-linejoin:miter;stroke-opacity:1"
       d="m 443.95858,148.79781 c -0.0771,-0.18956 -0.31836,-0.80754 -0.29897,-1.55133 0.0194,-0.74379 0.29941,-1.61339 1.26474,-2.30622 -0.22752,0.55966 0.22623,1.46329 -0.28699,1.93696 -0.46684,0.43087 -0.63568,1.32843 -0.67878,1.92059 z"
       id="path1066"
       sodipodi:nodetypes="cscsc"
       inkscape:connector-curvature="0" />
    <path
       style="fill:#000000;stroke:#000000;stroke-width:0.26458299px;stroke-linecap:butt;stroke-linejoin:miter;stroke-opacity:1"
       d="m 458.41601,144.96424 c 0,0 -3.60449,-2.67109 -3.69158,-4.22743 -0.0871,-1.55634 -0.17065,-2.88061 -0.17065,-2.88061 1.62867,1.98544 2.88981,2.4665 4.72181,1.5765 z"
       id="path1068"
       sodipodi:nodetypes="csccc"
       inkscape:connector-curvature="0" />
    <path
       style="fill:#000000;stroke:#000000;stroke-width:0.26458299px;stroke-linecap:butt;stroke-linejoin:miter;stroke-opacity:1"
       d="m 467.48055,146.30026 c 0,0 -3.60449,-2.67109 -3.69158,-4.22743 -0.0871,-1.55634 -0.17065,-2.88061 -0.17065,-2.88061 1.40133,2.4091 2.93973,2.89826 4.72181,1.5765 z"
       id="path1070"
       sodipodi:nodetypes="csccc"
       inkscape:connector-curvature="0" />
    <path
       style="fill:#000000;stroke:#000000;stroke-width:0.26458299px;stroke-linecap:butt;stroke-linejoin:miter;stroke-opacity:1"
       d="m 477.44015,147.65741 c 0,0 -3.60449,-2.67109 -3.69158,-4.22744 -0.0871,-1.55633 -0.17065,-2.8806 -0.17065,-2.8806 1.66262,2.29243 3.03184,2.99478 4.72181,1.5765 z"
       id="path1072"
       sodipodi:nodetypes="csccc"
       inkscape:connector-curvature="0" />
    <path
       style="fill:#000000;stroke:#000000;stroke-width:0.26458299px;stroke-linecap:butt;stroke-linejoin:miter;stroke-opacity:1"
       d="m 487.09738,149.45924 c 0,0 -3.60449,-2.67109 -3.69158,-4.22743 -0.0871,-1.55634 0.0709,-2.91489 0.0709,-2.91489 1.6986,1.453 2.84148,2.02088 4.48029,1.6108 z"
       id="path1074"
       sodipodi:nodetypes="csccc"
       inkscape:connector-curvature="0" />
    <path
       style="fill:#000000;stroke:#000000;stroke-width:0.26458299px;stroke-linecap:butt;stroke-linejoin:miter;stroke-opacity:1"
       d="m 406.84972,124.77722 c 0,0 4.24972,1.4377 5.57785,0.6217 1.32812,-0.81601 2.46362,-1.50255 2.46362,-1.50255 -2.55973,-0.20563 -3.67399,-0.96772 -3.98774,-2.97973 z"
       id="path1076"
       sodipodi:nodetypes="csccc"
       inkscape:connector-curvature="0" />
    <path
       style="fill:#000000;stroke:#000000;stroke-width:0.26458299px;stroke-linecap:butt;stroke-linejoin:miter;stroke-opacity:1"
       d="m 400.583,118.09299 c 0,0 4.24972,1.43769 5.57786,0.62169 1.32811,-0.81601 2.46361,-1.50254 2.46361,-1.50254 -2.77811,0.22271 -4.05725,-0.76207 -3.98775,-2.97973 z"
       id="path1078"
       sodipodi:nodetypes="csccc"
       inkscape:connector-curvature="0" />
    <path
       style="fill:#000000;stroke:#000000;stroke-width:0.26458299px;stroke-linecap:butt;stroke-linejoin:miter;stroke-opacity:1"
       d="m 393.7885,110.68554 c 0,0 4.24972,1.4377 5.57785,0.6217 1.32811,-0.81601 2.46361,-1.50255 2.46361,-1.50255 -2.83127,-0.0585 -4.18905,-0.78268 -3.98774,-2.97973 z"
       id="path1080"
       sodipodi:nodetypes="csccc"
       inkscape:connector-curvature="0" />
    <path
       style="fill:#000000;stroke:#000000;stroke-width:0.26458299px;stroke-linecap:butt;stroke-linejoin:miter;stroke-opacity:1"
       d="m 386.80114,103.78007 c 0,0 4.24972,1.43771 5.57784,0.6217 1.32812,-0.816 2.35405,-1.72049 2.35405,-1.72049 -2.16223,-0.56679 -3.28048,-1.1817 -3.87817,-2.761772 z"
       id="path1082"
       sodipodi:nodetypes="csccc"
       inkscape:connector-curvature="0" />
    <path
       style="fill:#000000;stroke:#000000;stroke-width:0.26458299px;stroke-linecap:butt;stroke-linejoin:miter;stroke-opacity:1"
       d="m 444.38427,136.32142 0.065,-2.54637 c 0,0 4.62395,1.64503 6.65329,0.60247 -0.12338,1.12036 -0.27006,2.23952 -0.27006,2.23952 l -2.16506,-0.0514 -0.28818,0.71928 -0.94219,-0.0427 -0.0129,-0.6294 z"
       id="path1084"
       sodipodi:nodetypes="ccccccccc"
       inkscape:connector-curvature="0" />
    <path
       style="fill:#000000;stroke:#000000;stroke-width:0.26458299px;stroke-linecap:butt;stroke-linejoin:miter;stroke-opacity:1"
       d="m 427.33825,130.083 1.78376,-2.11043 c 0,0 -4.52866,-1.62616 -5.39785,-3.73558 -0.6324,0.93301 -1.44132,1.80775 -1.44132,1.80775 l 2.25641,1.93897 -0.17978,0.68213 0.78032,0.52414 0.53741,-0.32004 z"
       id="path1086"
       sodipodi:nodetypes="ccccccccc"
       inkscape:connector-curvature="0" />
    <path
       id="path1088"
       style="fill:#000000;fill-opacity:1;stroke:#000000;stroke-width:0.56499898;stroke-linecap:butt;stroke-linejoin:miter;stroke-miterlimit:4;stroke-dasharray:none;paint-order:markers stroke fill"
       d="m 429.25022,136.17297 c -2.94173,3.1012 -5.73762,6.10909 -5.81781,6.43247 0.49719,0.5771 3.81288,0.0324 3.81288,0.0324 0,0 0.29953,3.09813 0.64227,3.60339 0.52337,0.21942 3.12882,-1.30836 3.12882,-1.30836 0,0 1.61399,4.05708 2.24511,4.37076 0.32632,-0.27088 2.04308,-3.96933 3.78243,-7.83486 -4.10911,0.58723 -7.1856,-1.291 -7.7937,-5.29579 z"
       sodipodi:nodetypes="cccccccc"
       inkscape:connector-curvature="0" />
    <path
       style="fill:#ececec;stroke:#000000;stroke-width:0.35907599px;stroke-linecap:butt;stroke-linejoin:miter;stroke-opacity:1"
       d="m 397.87907,144.00088 c 0,0 -10.40686,10.0627 -22.60774,18.0038 18.09641,-6.74713 30.53572,-21.04563 30.53572,-21.04563 z"
       id="path1090"
       sodipodi:nodetypes="cccc"
       inkscape:connector-curvature="0" />
    <path
       style="fill:#ececec;stroke:#000000;stroke-width:0.35907599px;stroke-linecap:butt;stroke-linejoin:miter;stroke-opacity:1"
       d="m 411.56187,150.70555 c 0,0 -10.40686,10.0627 -22.60773,18.0038 18.09641,-6.74713 30.53572,-21.04563 30.53572,-21.04563 z"
       id="path1092"
       sodipodi:nodetypes="cccc"
       inkscape:connector-curvature="0" />
    <path
       style="fill:#ececec;stroke:#000000;stroke-width:0.35907599px;stroke-linecap:butt;stroke-linejoin:miter;stroke-opacity:1"
       d="m 424.60426,157.16527 c 0,0 -10.40687,10.0627 -22.60774,18.0038 18.09641,-6.74713 30.53572,-21.04563 30.53572,-21.04563 z"
       id="path1094"
       sodipodi:nodetypes="cccc"
       inkscape:connector-curvature="0" />
    <path
       id="path1096"
       style="fill:#ffe680;fill-opacity:1;stroke:#000000;stroke-width:2.1354301;stroke-linecap:butt;stroke-linejoin:miter;stroke-miterlimit:4;stroke-dasharray:none;stroke-opacity:1"
       d="m 348.47461,71.962891 c -4.47907,-0.07281 -9.5545,0.329994 -15.62891,1.3125 -6.97111,0.853197 -11.04275,3.517377 -15.50887,8.090248 8.17997,-1.798296 21.64802,-3.658698 31.0015,-3.258692 10.77537,0.460814 36.27552,7.178069 51.56979,11.703399 1.97126,0.08591 4.01102,1.044386 6.00008,1.220904 -27.14305,-8.038524 -38.02429,-18.752848 -57.43359,-19.068359 z"
       transform="matrix(0.26458333,0,0,0.26458333,375.27133,77.24769)"
       sodipodi:nodetypes="sccsccs"
       inkscape:connector-curvature="0" />
    <path
       id="path1103"
       style="fill:#ffe680;fill-opacity:1;stroke:#000000;stroke-width:0.56499898;stroke-linecap:butt;stroke-linejoin:miter;stroke-miterlimit:4;stroke-dasharray:none;stroke-opacity:1"
       d="m 291.52179,88.539055 c -1.11921,0.390051 -2.34325,0.952577 -3.76259,1.750133 -1.65387,0.847139 -2.42248,1.879923 -3.11518,3.422766 1.86803,-1.192051 5.04394,-2.881381 7.40377,-3.634313 2.71858,-0.867385 7.6149,-1.472155 11.82631,-1.741689 0.49749,-0.15828 1.59479,-0.265642 2.10496,-0.403036 -7.47476,0.476525 -9.60729,-1.084068 -14.45727,0.606139 z"
       sodipodi:nodetypes="sccsccs"
       inkscape:connector-curvature="0" />
    <path
       id="path1105"
       style="fill:#ffe680;fill-opacity:1;stroke:#000000;stroke-width:0.56499898;stroke-linecap:butt;stroke-linejoin:miter;stroke-miterlimit:4;stroke-dasharray:none;stroke-opacity:1"
       d="m 415.97402,133.11026 c -1.7635,-0.84277 -4.82062,-1.50962 -6.87976,-1.09846 3.62845,0.82307 6.50937,1.17024 8.67661,2.95728 -0.32678,-0.58361 -0.74249,-1.3856 -1.79685,-1.85882 z"
       sodipodi:nodetypes="cccc"
       inkscape:connector-curvature="0" />
    <path
       id="path1107"
       style="fill:#ffe680;fill-opacity:1;stroke:#000000;stroke-width:0.56499898;stroke-linecap:butt;stroke-linejoin:miter;stroke-miterlimit:4;stroke-dasharray:none;stroke-opacity:1"
       d="m 415.5391,135.86114 c -1.67868,-0.47601 -3.35396,-0.8185 -4.82785,-0.65365 1.99858,0.26454 3.24863,0.37648 4.71401,0.83425 0.18476,-0.004 0.32243,-0.0533 0.11384,-0.1806 z"
       sodipodi:nodetypes="cccc"
       inkscape:connector-curvature="0" />
    <path
       inkscape:connector-curvature="0"
       sodipodi:nodetypes="cccc"
       d="m 456.68103,148.6415 c -2.84017,-3.12854 -6.0021,-4.68598 -8.78476,-5.06966 0.65066,-0.15495 2.35318,-0.17746 3.32034,0.16517 1.43845,0.59068 4.37199,3.11126 5.46442,4.90449 z"
       style="fill:#ffe680;fill-opacity:1;stroke:#000000;stroke-width:0.56499898;stroke-linecap:butt;stroke-linejoin:miter;stroke-miterlimit:4;stroke-dasharray:none;stroke-opacity:1"
       id="path890" />
    <path
       sodipodi:nodetypes="ccc"
       id="path892"
       d="m 444.79383,145.04818 c 0.53389,-0.50992 1.52718,-0.88842 2.31127,-1.37078 0.59094,0.53573 -1.23667,1.38228 -2.31127,1.37078 z"
       style="fill:#ffe680;fill-opacity:1;stroke:#000000;stroke-width:0.26458299px;stroke-linecap:butt;stroke-linejoin:miter;stroke-opacity:1"
       inkscape:connector-curvature="0" />
    <path
       style="fill:#000000;stroke:#000000;stroke-width:0.24736559;stroke-linecap:butt;stroke-linejoin:miter;stroke-miterlimit:4;stroke-dasharray:none;stroke-opacity:1"
       d="M 26.292969,0.12304688 V 0.125 c -0.02646,3.78e-5 -0.05324,-1.1339e-4 -0.08008,0 -0.02646,1.5118e-4 -0.05324,-3.0236e-4 -0.08008,0 -0.02646,2.2677e-4 -0.0552,0.001726 -0.08203,0.001953 -0.02646,4.5355e-4 -0.05287,-6.4251e-4 -0.08008,0 -0.86434,0.0188976 -1.713497,0.18949622 -2.455078,0.55078126 -0.741619,0.36132284 -1.551782,0.36195424 -2.712891,0.007813 1.646552,1.22108974 1.486303,1.94048164 -1.449218,1.58203124 2.92611,1.5858142 1.312723,3.7184737 2.828125,6.0566407 1.557921,2.4037408 1.292968,3.7695308 1.292968,3.7695308 L 22.625,12.611328 c 0,0 -13.4683016,1.339226 -18.4121094,0.9375 C 3.5057143,13.491379 1.8182862,12.088 1.171875,11.400391 c 0.1302109,2.572611 0.843296,3.594418 2.5411517,5.056756 0.6933116,0.06149 0.5431234,0.09972 1.2043174,0.05653 0.010701,2.367042 -0.3517006,5.874653 -1.0805589,7.373047 1.5757437,-0.05178 3.2527307,-1.121094 3.2527307,-1.121094 0.8709507,-1.358287 1.6218996,-4.169075 1.8101434,-6.291016 0.6582129,-0.0038 1.1223407,-0.0079 1.6499857,-0.01172 0.1464,2.435981 -0.243759,6.497562 -0.9366734,8.398437 1.4446664,-0.03893 2.9661324,-1.15039 2.9661324,-1.15039 1.193926,-1.488832 1.658212,-5.117134 1.65719,-7.232422 0.433158,0.0038 0.846474,0.01197 1.23929,0.01953 0.339742,2.823118 -0.171039,7.216888 -0.941477,9.164062 1.369376,-0.05556 2.826831,-1.203125 2.826831,-1.203125 1.416968,-1.693682 2.053628,-5.859995 2.28164,-7.80664 4.079637,0.255496 2.964844,0.675781 2.964844,0.675781 -0.05745,0.524712 -2.308057,5.633116 -2.267578,6.103516 0.641537,0.05291 1.28125,0.347656 1.28125,0.347656 0,0 -0.0734,0.238666 -0.08398,0.273437 l 0.484375,0.101563 c 0.02268,-0.05858 0.07901,-0.23999 0.09375,-0.279297 0.540322,0.16063 0.843875,0.138432 1.167969,0.201172 0.289512,-0.298205 0.03162,-1.663623 0.478516,-1.939453 1.27816,0.393751 1.530225,0.113439 2.841797,0.28125 l -1.251954,8.05664 1.388672,-0.925781 1.119141,1.146484 0.8125,-1.24414 1.888672,1.03125 -1.341797,-8.064453 h 1.306641 l 0.503906,1.642578 1.285156,-0.28125 0.08203,0.287109 0.490235,-0.158203 c -0.01134,-0.06085 -0.06641,-0.304687 -0.06641,-0.304687 l 0.888672,-0.396485 c 0,0 -1.275319,-5.595955 -1.365234,-6.261719 0.624416,-0.0548 1.217121,-0.106864 1.798828,-0.160156 0.196158,1.997972 0.40415,6.017866 1.84375,7.673828 0,0 1.514464,1.14734 2.937404,1.203125 -0.804195,-1.95583 -1.336001,-6.379603 -0.973311,-9.201171 0.439477,-0.03402 0.868636,-0.06988 1.28527,-0.103516 -0.01932,2.094501 0.451714,5.835128 1.717021,7.353516 0,0 1.583521,1.111348 3.084647,1.15039 -0.764496,-2.017738 -1.176494,-6.476844 -0.940867,-8.833984 0.57615,-0.05254 1.125179,-0.104407 1.647143,-0.154297 0.07341,2.158261 0.806489,5.398064 1.669602,6.888672 0,0 1.511969,1.069163 2.934908,1.121093 -0.761164,-1.733291 -1.081483,-6.157717 -0.943363,-8.390624 0.664963,-0.07559 0.542844,-0.05508 1.093107,-0.125 1.236672,-0.175376 2.01674,-0.913126 2.486486,-4.548829 -0.349984,0.708889 -1.790899,1.820139 -2.849609,1.769532 -7.588725,-0.362457 -13.492011,0.658982 -17.824219,0.382812 -0.293669,-0.786142 -0.253646,-0.452024 -0.210938,-1.027344 0.0076,-0.105448 0.173139,-0.24524 0.392579,-0.394531 l 1.333984,-6.6386718 c -0.04044,0.022677 -0.07209,0.032452 -0.113281,0.056641 C 32.354969,1.1615685 29.61506,0.12036341 26.292969,0.12304688 Z M 27.46875,3.1992188 c 1.162868,-1.193e-4 2.105588,0.942601 2.105469,2.1054687 -9.59e-4,1.1621049 -0.943364,2.1036352 -2.105469,2.1035156 -1.162105,1.196e-4 -2.10451,-0.9414107 -2.105469,-2.1035156 -1.19e-4,-1.1628677 0.942601,-2.105588 2.105469,-2.1054687 z"
       transform="matrix(0.26458333,0,0,0.26458333,86.75812,245.14046)"
       id="path922"
       inkscape:connector-curvature="0"
       sodipodi:nodetypes="cccccccccccccccccccccccccccccccccccccccccccccccccccccccccccccccccccccccccccc" />
    <path
       inkscape:connector-curvature="0"
       id="path926"
       style="fill:#000000;fill-opacity:1;stroke:#000000;stroke-width:0.06544878;stroke-linecap:butt;stroke-linejoin:miter;stroke-miterlimit:4;stroke-dasharray:none;stroke-opacity:1"
       d="m 95.451421,246.4396 c -0.53059,0.27251 -0.61568,0.84903 -0.35324,1.75693 0.25876,-0.17614 0.94451,-0.43638 0.98855,-0.5172 0.0539,-0.099 -0.8654,0.0732 -0.81525,0.025 0.0502,-0.0482 0.0868,-0.0717 0.0868,-0.0717 0,0 0.99471,-1.08049 2.3826,-1.4559 -1.17938,0.0513 -1.41311,-0.23089 -2.28946,0.26279 z"
       sodipodi:nodetypes="ccssccc" />
    <path
       inkscape:connector-curvature="0"
       id="path928"
       style="fill:#000000;stroke:#000000;stroke-width:0.06544881;stroke-linecap:butt;stroke-linejoin:miter;stroke-miterlimit:4;stroke-dasharray:none;stroke-opacity:1"
       d="m 92.588025,251.53224 -0.128223,-0.0268 c -0.03608,0.11884 -0.272028,0.89362 -0.375211,1.1142 -0.101636,0.002 -0.869689,0.0368 -1.126111,0.37539 0.480545,-0.15627 0.879146,-0.15597 1.020875,-0.16707 -0.185571,0.12623 -0.44505,0.089 -0.672183,0.39071 0.317713,-0.1175 0.896516,-0.23196 0.966581,-0.1727 0.107822,0.10241 0.260511,0.21971 0.08315,0.49901 0.215319,-0.0759 0.285063,-0.42594 0.16025,-0.57396 -0.05519,-0.1535 -0.14783,-0.22298 -0.272071,-0.32588 0.05649,-0.2723 0.266659,-0.90069 0.342946,-1.11288 z" />
    <path
       inkscape:connector-curvature="0"
       id="path931"
       style="fill:#000000;fill-opacity:1;stroke:#000000;stroke-width:0.06544881;stroke-linecap:butt;stroke-linejoin:miter;stroke-miterlimit:4;stroke-dasharray:none;stroke-opacity:1"
       d="m 95.462686,251.46705 -0.129539,0.042 0.195147,0.68781 c 0,0 -0.130261,0.16106 -0.170665,0.20897 -0.124814,0.14801 -0.05501,0.49805 0.160309,0.57395 -0.177364,-0.2793 -0.02473,-0.39659 0.08309,-0.499 0.07006,-0.0593 0.648867,0.0552 0.96658,0.1727 -0.227132,-0.30174 -0.557007,-0.21798 -0.742578,-0.3442 0.141728,0.0111 0.610726,-0.0357 1.091271,0.12056 -0.180192,-0.26001 -0.836212,-0.30303 -0.937847,-0.30499 -0.08676,-0.001 -0.295863,0.0533 -0.344803,0.003 -0.04333,-0.0441 -0.145372,-0.53643 -0.170963,-0.66123 z" />
  </g>
</svg>
