<?xml version="1.0" encoding="UTF-8" standalone="no"?>
<svg
   xmlns:dc="http://purl.org/dc/elements/1.1/"
   xmlns:cc="http://creativecommons.org/ns#"
   xmlns:rdf="http://www.w3.org/1999/02/22-rdf-syntax-ns#"
   xmlns:svg="http://www.w3.org/2000/svg"
   xmlns="http://www.w3.org/2000/svg"
   xmlns:sodipodi="http://sodipodi.sourceforge.net/DTD/sodipodi-0.dtd"
   xmlns:inkscape="http://www.inkscape.org/namespaces/inkscape"
   width="107.99424mm"
   height="73.075546mm"
   viewBox="0 0 107.99424 73.075546"
   version="1.1"
   id="svg8"
   inkscape:version="0.92.5 (2060ec1f9f, 2020-04-08)"
   sodipodi:docname="green-pheasant-icon.svg">
  <defs
     id="defs2" />
  <sodipodi:namedview
     id="base"
     pagecolor="#ffffff"
     bordercolor="#666666"
     borderopacity="1.0"
     inkscape:pageopacity="0.0"
     inkscape:pageshadow="2"
     inkscape:zoom="2"
     inkscape:cx="326.08862"
     inkscape:cy="168.82444"
     inkscape:document-units="mm"
     inkscape:current-layer="layer1"
     inkscape:document-rotation="0"
     showgrid="false"
     inkscape:window-width="1920"
     inkscape:window-height="1016"
     inkscape:window-x="1920"
     inkscape:window-y="27"
     inkscape:window-maximized="1"
     inkscape:snap-global="false" />
  <metadata
     id="metadata5">
    <rdf:RDF>
      <cc:Work
         rdf:about="">
        <dc:format>image/svg+xml</dc:format>
        <dc:type
           rdf:resource="http://purl.org/dc/dcmitype/StillImage" />
        <dc:title></dc:title>
      </cc:Work>
    </rdf:RDF>
  </metadata>
  <g
     inkscape:label="Layer 1"
     inkscape:groupmode="layer"
     id="layer1"
     transform="translate(-79.866506,-95.525849)">
    <path
       style="fill:none;stroke:#000000;stroke-width:0.86500001;stroke-linecap:round;stroke-linejoin:round;stroke-miterlimit:4;stroke-dasharray:none;stroke-opacity:1"
       d="m 158.96886,150.06709 c 0.27712,11.65055 1.02775,13.37381 1.02775,13.37381 l 4.29561,0.83083 -4.22082,-0.90297 1.24952,3.39737 -1.28947,-3.56502 -3.65904,2.24148"
       id="path879"
       sodipodi:nodetypes="ccccccc"
       inkscape:connector-curvature="0" />
    <path
       style="fill:#000000;fill-opacity:1;stroke:#000000;stroke-width:0.86500001;stroke-linecap:butt;stroke-linejoin:miter;stroke-miterlimit:4;stroke-dasharray:none;stroke-opacity:1"
       d="m 154.58829,148.80572 c 2.28631,3.70677 7.99052,1.24073 8.14991,-3.472"
       id="path881"
       sodipodi:nodetypes="cc"
       inkscape:connector-curvature="0" />
    <path
       id="path833"
       style="fill:#000000;fill-opacity:1;stroke:#000000;stroke-width:3.26928997;stroke-linecap:butt;stroke-linejoin:round;stroke-miterlimit:4;stroke-dasharray:none;stroke-opacity:1"
       d="m 606.53421,450.37268 c -32.23633,2.92096 -138.45117,13.58685 -152.7212,16.39331 -14.27003,2.80646 -59.6024,17.61803 -92.60148,18.92838 -32.99908,1.31036 -56.94559,0.93848 -57.71715,8.72611 0.19178,8.47904 24.31018,16.05191 58.72664,12.22584 35.64077,-3.96218 91.59935,-10.53062 91.59935,-10.53062 l -2.32285,5.25501 c -1.29331,2.63856 -7.18428,7.85396 -7.18428,7.85396 0,0 8.9091,-1.59789 9.45345,-0.25679 0.54434,1.3411 -3.16425,7.95021 -3.16425,7.95021 0,0 8.74932,-3.19003 9.8356,-1.92389 1.08628,1.26614 -2.24454,8.3366 -2.24454,8.3366 0,0 9.2372,-5.74333 10.6379,-4.59992 1.40069,1.1434 0.17053,8.4419 0.17053,8.4419 0,0 2.50007,-1.00116 4.97031,0.23516 0.97882,0.48861 26.16231,13.29554 26.87174,13.63322 24.39272,7.87344 28.08496,26.65472 50.26278,26.65169 29.5098,-0.64206 51.13758,-11.57518 71.09583,-23.02614 19.42819,-11.14684 31.27533,-22.9115 34.40132,-46.50994 1.13174,-8.54366 -1.10459,-25.16472 -2.4889,-37.07859 -1.13863,-16.21684 -31.414,-12.41336 -47.5808,-10.7055 z"
       sodipodi:nodetypes="csscscccscscsccccsscc"
       transform="scale(0.26458333)"
       inkscape:connector-curvature="0" />
    <path
       style="fill:#000000;fill-opacity:1;stroke:#000000;stroke-width:3.26928997;stroke-linecap:butt;stroke-linejoin:miter;stroke-miterlimit:4;stroke-dasharray:none;stroke-opacity:1"
       d="M 350.03906 1.6230469 C 336.40425 1.7502966 322.19517 8.3244291 309.97266 12.873047 C 297.74429 14.265287 291.14848 10.556133 290.14844 11.539062 C 289.1484 12.521992 296.16123 26.759256 306.90625 25.791016 C 306.01067 35.805245 308.28326 52.214008 319.3125 66.523438 C 319.00851 78.690357 313.36431 87.153832 308.41602 88.669922 L 326.29688 100.8457 L 352.31836 100.55469 C 352.29936 100.39215 352.30311 100.19064 352.25781 100.03516 C 347.27842 82.932386 353.28299 75.125932 360.50391 72.576172 C 371.02121 68.862432 391.39284 29.420706 376.40039 13.128906 C 368.42937 4.4670551 359.36815 1.5359813 350.03906 1.6230469 z M 348.4707 14.501953 A 14.245503 14.245503 0 0 1 362.7168 28.748047 A 14.245503 14.245503 0 0 1 348.4707 42.994141 A 14.245503 14.245503 0 0 1 334.22656 28.748047 A 14.245503 14.245503 0 0 1 348.4707 14.501953 z "
       transform="matrix(0.26458333,0,0,0.26458333,79.866506,95.525849)"
       id="path917" />
    <path
       style="fill:#000000;stroke:#000000;stroke-width:0.801961;stroke-linecap:round;stroke-linejoin:round;stroke-miterlimit:4;stroke-dasharray:none;stroke-opacity:1"
       d="m 178.46627,104.47073 c 1.1104,-1.22566 7.09671,-1.30209 8.99351,5.7459 -1.78922,-0.4437 -7.27494,-1.15101 -8.98563,0.0385 -1.01421,-1.54424 -0.008,-5.78436 -0.008,-5.78436 z"
       id="path853"
       sodipodi:nodetypes="ccccc"
       inkscape:connector-curvature="0" />
    <path
       style="fill:none;stroke:#000000;stroke-width:0.86500001;stroke-linecap:round;stroke-linejoin:round;stroke-miterlimit:4;stroke-dasharray:none;stroke-opacity:1"
       d="m 147.19642,149.86988 c 0.27712,11.65055 1.25066,14.9785 1.25066,14.9785 l 4.29561,0.83083 -4.22082,-0.90297 1.24952,3.39737 -1.28947,-3.56502 -3.65904,2.24148"
       id="path877"
       inkscape:connector-curvature="0" />
    <path
       id="path912"
       style="fill:#000000;stroke:none;stroke-width:0.99999899px;stroke-linecap:butt;stroke-linejoin:miter;stroke-opacity:1"
       d="m 613.13071,448.52979 c -1.19449,2.18149 -2.61976,1.483 -6.59555,1.84326 -0.81378,0.0737 -2.17078,0.2057 -3.07618,0.28906 -2.82858,4.85653 -5.47621,11.55546 -0.51553,11.82171 19.28963,1.0353 29.09515,10.18412 38.76163,13.09821 4.49319,1.35455 8.13168,1.13077 12.50255,0.53602 -0.50612,-4.87349 -1.72302,-13.14062 -2.57474,-18.681 -9.43831,2.70515 -22.21314,6.35188 -38.50218,-8.90726 z"
       transform="scale(0.26458333)"
       sodipodi:nodetypes="cscssccc"
       inkscape:connector-curvature="0" />
    <path
       id="path922"
       style="fill:#000000;stroke:#000000;stroke-width:0.86500001;stroke-linecap:butt;stroke-linejoin:miter;stroke-miterlimit:4;stroke-dasharray:none;stroke-opacity:1"
       d="m 140.46584,121.11485 c -9.28227,0.96077 -18.36238,1.96091 -20.39462,2.36058 -3.77561,0.74254 -15.76982,4.66178 -24.500827,5.00848 -8.731006,0.3467 -15.066761,0.24791 -15.270903,2.30839 0.05074,2.24341 6.435866,4.67596 15.541888,3.66364 9.429952,-1.04832 24.231912,-3.21509 24.231912,-3.21509 l -0.61443,1.39061 c -0.34219,0.69812 -1.90118,2.07791 -1.90118,2.07791 0,0 2.35763,-0.42253 2.50166,-0.0677 0.14402,0.35483 -0.83768,2.10323 -0.83768,2.10323 0,0 2.31502,-0.84402 2.60243,-0.50902 0.28741,0.335 -0.59377,2.20555 -0.59377,2.20555 0,0 2.44422,-1.5195 2.81482,-1.21698 0.3706,0.30253 0.045,2.23346 0.045,2.23346 0,0 0.66158,-0.26458 1.31516,0.0625 0.13361,0.0667 1.89385,0.95977 3.668,1.86087 z"
       sodipodi:nodetypes="csscscccscscscccc"
       inkscape:connector-curvature="0" />
    <path
       style="fill:#000000;fill-opacity:1;stroke:none;stroke-width:0.26458299px;stroke-linecap:butt;stroke-linejoin:miter;stroke-opacity:1"
       d="m 142.85989,149.19044 c 0.41951,0.52554 5.83389,1.57852 12.36277,-1.10287 4.41973,-5.45142 6.19063,-22.98722 6.02411,-25.64446 -0.16652,-2.65723 -12.70464,10.00858 -12.70464,10.00858 z"
       id="path932"
       sodipodi:nodetypes="ccscc"
       inkscape:connector-curvature="0" />
    <path
       id="path934"
       style="fill:#000000;fill-opacity:1;stroke:none;stroke-width:0.26458299px;stroke-linecap:butt;stroke-linejoin:miter;stroke-opacity:1"
       d="m 119.25214,128.75962 c -0.47799,0.008 -0.98278,0.0461 -1.42789,0.0988 -1.69264,0.18758 -3.34679,0.60597 -4.994,1.02331 -3.09163,0.71748 -6.24183,1.14301 -9.39177,1.50764 -3.651761,0.40736 -7.317322,0.70358 -10.989407,0.84216 -5.116777,0.43872 -8.057494,-1.14439 -11.343907,-1.96903 -1.222315,0.66641 0.645535,2.03956 1.563184,2.44115 1.766565,0.69826 3.610755,1.22651 5.494155,1.38562 0.385797,0.0316 0.772364,0.0509 1.158875,0.0712 0.118028,0.005 0.335113,0.0109 0.491077,0.0162 1.61925,0.0474 3.242046,0.174 4.855036,0.0292 0.176781,-0.0192 0.438745,-0.045 0.648218,-0.0667 8.445769,-0.93887 16.944289,-2.36455 25.388019,-3.3498 -0.35873,0.792 -0.68831,1.59849 -1.06552,2.38133 -0.22061,0.36634 -0.50957,0.68541 -0.80051,0.99676 0.4634,-0.0148 1.01501,-0.0819 1.37718,0.27233 0.29492,0.36799 0.11554,0.86022 -0.0326,1.25082 -0.0386,0.11297 -0.11253,0.2507 -0.141,0.34702 0.51629,-0.12481 1.05748,-0.30325 1.59078,-0.18778 0.40613,0.0852 0.60296,0.53119 0.54483,0.91442 -0.0198,0.2252 -0.0747,0.44575 -0.13935,0.6619 0.52317,-0.25178 1.05454,-0.56205 1.6475,-0.58854 0.41341,-0.0195 0.72278,0.34859 0.78213,0.73225 0.0944,0.47389 0.0509,0.96448 0.0116,1.43914 0.54907,-0.0176 1.03379,0.26344 1.50422,0.50794 0.64891,0.32919 1.29782,0.65838 1.94673,0.98758 1.24161,-2.5871 4.86388,-8.0303 6.10549,-10.6174 -1.07848,-0.71825 -3.42057,-0.29376 -4.72676,-0.3638 -0.63321,-0.0354 -1.22303,0.27542 -1.67699,0.69489 -0.55739,0.50031 -1.14043,1.07247 -1.92093,1.16827 -0.60666,0.10255 -2.54879,1.75868 -2.89686,1.24106 -0.53644,-0.76956 -0.60561,-1.73687 -0.85533,-2.6164 -0.0957,-0.32158 -0.16473,-0.71072 -0.50071,-0.87255 -0.66434,-0.36422 -1.4668,-0.37451 -2.20542,-0.37909 z"
       sodipodi:nodetypes="ccccccccccccccccccccccccccccccccccc"
       inkscape:connector-curvature="0" />
    <path
       style="fill:#000000;stroke:#000000;stroke-width:0.83299297;stroke-linecap:butt;stroke-linejoin:miter;stroke-miterlimit:4;stroke-dasharray:none;stroke-opacity:1"
       d="m 137.81707,121.1036 c 3.19505,-3.02695 24.26215,-2.30049 24.26215,-2.30049 0,0 -9.68528,30.46589 -26.17594,32.54607 -13.9019,1.75362 -2.11996,-3.87396 -2.11996,-3.87396 -5.08271,1.9157 -12.13056,1.68356 -9.54762,-3.27559 2.58295,-4.95915 13.58137,-23.09603 13.58137,-23.09603 z"
       id="path873"
       sodipodi:nodetypes="ccscsc"
       inkscape:connector-curvature="0" />
    <path
       style="fill:#000000;stroke:#000000;stroke-width:0.86500001;stroke-linecap:butt;stroke-linejoin:miter;stroke-miterlimit:4;stroke-dasharray:none;stroke-opacity:1"
       d="m 120.0733,131.09173 c 0,0 1.26584,-5.38081 1.00558,-7.93074"
       id="path875"
       sodipodi:nodetypes="cc"
       inkscape:connector-curvature="0" />
    <path
       style="fill:#000000;stroke:#000000;stroke-width:0.86500001;stroke-linecap:butt;stroke-linejoin:miter;stroke-miterlimit:4;stroke-dasharray:none;stroke-opacity:1"
       d="m 110.8136,132.54108 c 0,0 1.36688,-4.62971 1.10662,-7.17964"
       id="path887"
       sodipodi:nodetypes="cc"
       inkscape:connector-curvature="0" />
    <path
       style="fill:#000000;stroke:#000000;stroke-width:0.78738099;stroke-linecap:butt;stroke-linejoin:miter;stroke-miterlimit:4;stroke-dasharray:none;stroke-opacity:1"
       d="m 104.89558,133.22625 c 0,0 1.26584,-4.45847 1.00558,-6.57131"
       id="path889"
       sodipodi:nodetypes="cc"
       inkscape:connector-curvature="0" />
    <path
       style="fill:#000000;stroke:#000000;stroke-width:0.74828899;stroke-linecap:butt;stroke-linejoin:miter;stroke-miterlimit:4;stroke-dasharray:none;stroke-opacity:1"
       d="m 99.725643,133.93479 c 0,0 1.341017,-4.4609 1.080757,-6.36914"
       id="path891"
       sodipodi:nodetypes="cc"
       inkscape:connector-curvature="0" />
    <path
       style="fill:#000000;stroke:#000000;stroke-width:0.74828899;stroke-linecap:butt;stroke-linejoin:miter;stroke-miterlimit:4;stroke-dasharray:none;stroke-opacity:1"
       d="m 94.020722,134.44629 c 0,0 1.415071,-4.4571 1.154811,-6.36534"
       id="path893"
       sodipodi:nodetypes="cc"
       inkscape:connector-curvature="0" />
    <path
       style="fill:#000000;stroke:#000000;stroke-width:0.74828899;stroke-linecap:butt;stroke-linejoin:miter;stroke-miterlimit:4;stroke-dasharray:none;stroke-opacity:1"
       d="m 87.154927,134.21412 c 0,0 1.307805,-3.76569 1.047545,-5.67393"
       id="path895"
       sodipodi:nodetypes="cc"
       inkscape:connector-curvature="0" />
    <path
       style="fill:#000000;stroke:#000000;stroke-width:0.86500001;stroke-linecap:butt;stroke-linejoin:miter;stroke-miterlimit:4;stroke-dasharray:none;stroke-opacity:1"
       d="m 115.79823,131.63172 c 0,0 1.55086,-5.26762 1.2906,-7.81755"
       id="path897"
       sodipodi:nodetypes="cc"
       inkscape:connector-curvature="0" />
    <path
       id="path940"
       style="fill:#000000;fill-opacity:1;stroke:none;stroke-width:0.26458299px;stroke-linecap:butt;stroke-linejoin:miter;stroke-opacity:1"
       d="m 157.87512,127.10697 c -6.4897,5.96561 -12.96471,11.96199 -19.41329,17.96273 -0.54935,0.49595 -1.06188,1.03456 -1.63696,1.50084 -1.07849,0.79778 -2.30399,0.91929 -3.51311,1.56647 -0.55773,0.29775 -1.13325,0.55488 -1.68754,0.8579 -0.67005,0.4902 -1.45962,0.95503 -1.96481,1.67022 -0.14124,0.13903 -0.0291,0.37693 0.11607,0.40711 0.37659,0.14038 0.79826,0.15393 1.16052,0.17578 0.32015,0.0174 0.8109,0.0561 1.1653,0.0401 1.44078,-0.0769 3.05178,-0.13876 4.4779,-0.44631 3.17946,-0.73109 5.70761,-2.03695 8.06364,-3.9391 0.92187,-0.78639 1.70548,-1.53203 2.54836,-2.31439 2.30876,-2.34741 4.24529,-4.96945 6.00716,-7.7449 1.99959,-3.16521 3.62287,-6.60566 5.16407,-10.03467 0.0927,-0.18466 0.15019,-0.32044 -0.0457,-0.10513 l -0.44162,0.40346 z"
       sodipodi:nodetypes="ccccccccccccccccc"
       inkscape:connector-curvature="0" />
    <path
       style="fill:#000000;fill-opacity:0.58422899;stroke:none;stroke-width:0.26458299px;stroke-linecap:butt;stroke-linejoin:miter;stroke-opacity:1"
       d="m 178.82406,104.65005 c 1.16858,-0.68402 4.69236,-0.80963 6.79746,2.53189 -5.29387,-1.97342 -7.0542,-1.00462 -7.0542,-1.00462 z"
       id="path952"
       sodipodi:nodetypes="cccc"
       inkscape:connector-curvature="0" />
    <path
       style="fill:#000000;fill-opacity:0.09072888;stroke:none;stroke-width:0.26458299px;stroke-linecap:butt;stroke-linejoin:miter;stroke-opacity:1"
       d="m 178.66702,109.70494 c -0.46318,-0.87483 -0.27147,-0.41095 -0.27147,-0.41095 -0.065,-0.7343 6.39019,-1.10688 8.51197,0.33723 0.22565,0.15358 -0.0114,0.0352 -0.0114,0.0352 z"
       id="path954"
       sodipodi:nodetypes="ccscc"
       inkscape:connector-curvature="0" />
    <path
       style="fill:#000000;stroke:#000000;stroke-width:0.86500001;stroke-linecap:round;stroke-linejoin:miter;stroke-miterlimit:4;stroke-dasharray:none;stroke-opacity:1"
       d="m 138.71545,140.3876 c -0.37776,1.42977 0.73719,2.15018 2.12025,0.98644"
       id="path956"
       inkscape:connector-curvature="0" />
    <path
       style="fill:#000000;stroke:#000000;stroke-width:0.73414201;stroke-linecap:round;stroke-linejoin:miter;stroke-miterlimit:4;stroke-dasharray:none;stroke-opacity:1"
       d="m 139.28423,146.00809 c -0.8498,0.91325 -0.22476,1.82344 1.33482,1.45094"
       id="path958"
       inkscape:connector-curvature="0" />
    <path
       style="fill:#000000;stroke:#000000;stroke-width:0.86500001;stroke-linecap:round;stroke-linejoin:miter;stroke-miterlimit:4;stroke-dasharray:none;stroke-opacity:1"
       d="m 144.17928,143.31006 c -0.37776,1.42977 0.73719,2.15018 2.12025,0.98644"
       id="path960"
       inkscape:connector-curvature="0" />
    <path
       style="fill:#000000;stroke:#000000;stroke-width:0.86500001;stroke-linecap:round;stroke-linejoin:miter;stroke-miterlimit:4;stroke-dasharray:none;stroke-opacity:1"
       d="m 141.12362,136.97447 c -0.37776,1.42977 0.73719,2.15018 2.12025,0.98644"
       id="path962"
       inkscape:connector-curvature="0" />
    <path
       style="fill:#000000;stroke:#000000;stroke-width:0.86500001;stroke-linecap:round;stroke-linejoin:miter;stroke-miterlimit:4;stroke-dasharray:none;stroke-opacity:1"
       d="m 146.60701,138.94378 c -0.37776,1.42977 0.73719,2.15018 2.12025,0.98644"
       id="path964"
       inkscape:connector-curvature="0" />
    <path
       style="fill:#000000;stroke:#000000;stroke-width:0.86500001;stroke-linecap:round;stroke-linejoin:miter;stroke-miterlimit:4;stroke-dasharray:none;stroke-opacity:1"
       d="m 145.10162,133.57543 c -0.37776,1.42977 0.73719,2.15018 2.12025,0.98644"
       id="path966"
       inkscape:connector-curvature="0" />
    <path
       style="fill:#000000;stroke:#000000;stroke-width:0.86500001;stroke-linecap:round;stroke-linejoin:miter;stroke-miterlimit:4;stroke-dasharray:none;stroke-opacity:1"
       d="m 149.71867,133.47823 c -0.37776,1.42977 0.73719,2.15018 2.12025,0.98644"
       id="path968"
       inkscape:connector-curvature="0" />
    <path
       style="fill:#000000;stroke:#000000;stroke-width:0.86500001;stroke-linecap:round;stroke-linejoin:miter;stroke-miterlimit:4;stroke-dasharray:none;stroke-opacity:1"
       d="m 148.22701,129.65141 c -0.37776,1.42977 0.73719,2.15018 2.12025,0.98644"
       id="path970"
       inkscape:connector-curvature="0" />
    <path
       style="fill:#000000;stroke:#000000;stroke-width:0.86500001;stroke-linecap:round;stroke-linejoin:miter;stroke-miterlimit:4;stroke-dasharray:none;stroke-opacity:1"
       d="m 153.40192,128.45607 c -0.37776,1.42977 0.73719,2.15018 2.12025,0.98644"
       id="path972"
       inkscape:connector-curvature="0" />
  </g>
</svg>
